<mxfile host="app.diagrams.net" modified="2021-07-18T05:06:04.115Z" agent="5.0 (Windows NT 10.0; Win64; x64) AppleWebKit/537.36 (KHTML, like Gecko) Chrome/90.0.4430.93 Safari/537.36" etag="5Y5Eo-E_kVblvK8_qpm6" version="14.9.0" type="github">
  <diagram id="vmqsmsesN2qq8Ci02o4d" name="Page-1">
    <mxGraphModel dx="1422" dy="706" grid="1" gridSize="10" guides="1" tooltips="1" connect="1" arrows="1" fold="1" page="1" pageScale="1" pageWidth="850" pageHeight="1100" math="0" shadow="0">
      <root>
        <mxCell id="0" />
        <mxCell id="1" parent="0" />
        <mxCell id="jxDY9_vzpqkCRHFZkc1k-1" value="学号" style="ellipse;whiteSpace=wrap;html=1;align=center;" vertex="1" parent="1">
          <mxGeometry x="285" y="40" width="100" height="40" as="geometry" />
        </mxCell>
        <mxCell id="jxDY9_vzpqkCRHFZkc1k-2" value="专业" style="ellipse;whiteSpace=wrap;html=1;align=center;" vertex="1" parent="1">
          <mxGeometry x="330" y="100" width="100" height="40" as="geometry" />
        </mxCell>
        <mxCell id="jxDY9_vzpqkCRHFZkc1k-3" value="学生" style="whiteSpace=wrap;html=1;align=center;" vertex="1" parent="1">
          <mxGeometry x="220" y="170" width="100" height="40" as="geometry" />
        </mxCell>
        <mxCell id="jxDY9_vzpqkCRHFZkc1k-4" value="性别" style="ellipse;whiteSpace=wrap;html=1;align=center;" vertex="1" parent="1">
          <mxGeometry x="170" y="40" width="100" height="40" as="geometry" />
        </mxCell>
        <mxCell id="jxDY9_vzpqkCRHFZkc1k-5" value="密码" style="ellipse;whiteSpace=wrap;html=1;align=center;" vertex="1" parent="1">
          <mxGeometry x="70" y="120" width="100" height="40" as="geometry" />
        </mxCell>
        <mxCell id="jxDY9_vzpqkCRHFZkc1k-6" value="姓名" style="ellipse;whiteSpace=wrap;html=1;align=center;" vertex="1" parent="1">
          <mxGeometry x="70" y="70" width="100" height="40" as="geometry" />
        </mxCell>
        <mxCell id="jxDY9_vzpqkCRHFZkc1k-7" value="学院" style="ellipse;whiteSpace=wrap;html=1;align=center;" vertex="1" parent="1">
          <mxGeometry x="70" y="170" width="100" height="40" as="geometry" />
        </mxCell>
        <mxCell id="jxDY9_vzpqkCRHFZkc1k-8" value="成绩" style="ellipse;whiteSpace=wrap;html=1;align=center;" vertex="1" parent="1">
          <mxGeometry x="60" y="260" width="100" height="40" as="geometry" />
        </mxCell>
        <mxCell id="jxDY9_vzpqkCRHFZkc1k-9" value="选课" style="shape=rhombus;perimeter=rhombusPerimeter;whiteSpace=wrap;html=1;align=center;" vertex="1" parent="1">
          <mxGeometry x="210" y="250" width="120" height="60" as="geometry" />
        </mxCell>
        <mxCell id="jxDY9_vzpqkCRHFZkc1k-10" value="学号" style="ellipse;whiteSpace=wrap;html=1;align=center;" vertex="1" parent="1">
          <mxGeometry x="530" y="110" width="100" height="40" as="geometry" />
        </mxCell>
        <mxCell id="jxDY9_vzpqkCRHFZkc1k-11" value="培养计划" style="whiteSpace=wrap;html=1;align=center;" vertex="1" parent="1">
          <mxGeometry x="220" y="350" width="100" height="40" as="geometry" />
        </mxCell>
        <mxCell id="jxDY9_vzpqkCRHFZkc1k-13" value="M" style="endArrow=none;html=1;rounded=0;exitX=0.5;exitY=1;exitDx=0;exitDy=0;entryX=0.5;entryY=0;entryDx=0;entryDy=0;" edge="1" parent="1" source="jxDY9_vzpqkCRHFZkc1k-9" target="jxDY9_vzpqkCRHFZkc1k-11">
          <mxGeometry relative="1" as="geometry">
            <mxPoint x="290" y="350" as="sourcePoint" />
            <mxPoint x="450" y="350" as="targetPoint" />
          </mxGeometry>
        </mxCell>
        <mxCell id="jxDY9_vzpqkCRHFZkc1k-15" value="N" style="endArrow=none;html=1;rounded=0;exitX=0.5;exitY=1;exitDx=0;exitDy=0;entryX=0.5;entryY=0;entryDx=0;entryDy=0;" edge="1" parent="1" source="jxDY9_vzpqkCRHFZkc1k-3" target="jxDY9_vzpqkCRHFZkc1k-9">
          <mxGeometry relative="1" as="geometry">
            <mxPoint x="280" y="350" as="sourcePoint" />
            <mxPoint x="280" y="410" as="targetPoint" />
          </mxGeometry>
        </mxCell>
        <mxCell id="jxDY9_vzpqkCRHFZkc1k-16" value="登录日志" style="whiteSpace=wrap;html=1;align=center;" vertex="1" parent="1">
          <mxGeometry x="530" y="170" width="100" height="40" as="geometry" />
        </mxCell>
        <mxCell id="jxDY9_vzpqkCRHFZkc1k-18" value="课程信息" style="whiteSpace=wrap;html=1;align=center;" vertex="1" parent="1">
          <mxGeometry x="220" y="510" width="100" height="40" as="geometry" />
        </mxCell>
        <mxCell id="jxDY9_vzpqkCRHFZkc1k-23" value="组成" style="shape=rhombus;perimeter=rhombusPerimeter;whiteSpace=wrap;html=1;align=center;" vertex="1" parent="1">
          <mxGeometry x="210" y="420" width="120" height="60" as="geometry" />
        </mxCell>
        <mxCell id="jxDY9_vzpqkCRHFZkc1k-24" value="N" style="endArrow=none;html=1;rounded=0;exitX=0.5;exitY=1;exitDx=0;exitDy=0;entryX=0.5;entryY=0;entryDx=0;entryDy=0;" edge="1" parent="1" source="jxDY9_vzpqkCRHFZkc1k-11" target="jxDY9_vzpqkCRHFZkc1k-23">
          <mxGeometry relative="1" as="geometry">
            <mxPoint x="280" y="350" as="sourcePoint" />
            <mxPoint x="280" y="410" as="targetPoint" />
          </mxGeometry>
        </mxCell>
        <mxCell id="jxDY9_vzpqkCRHFZkc1k-26" value="M" style="endArrow=none;html=1;rounded=0;exitX=0.5;exitY=1;exitDx=0;exitDy=0;entryX=0.5;entryY=0;entryDx=0;entryDy=0;" edge="1" parent="1" source="jxDY9_vzpqkCRHFZkc1k-23" target="jxDY9_vzpqkCRHFZkc1k-18">
          <mxGeometry relative="1" as="geometry">
            <mxPoint x="280" y="450" as="sourcePoint" />
            <mxPoint x="280" y="510" as="targetPoint" />
          </mxGeometry>
        </mxCell>
        <mxCell id="jxDY9_vzpqkCRHFZkc1k-28" value="N" style="endArrow=none;html=1;rounded=0;exitX=1;exitY=0.5;exitDx=0;exitDy=0;entryX=0;entryY=0.5;entryDx=0;entryDy=0;" edge="1" parent="1" source="jxDY9_vzpqkCRHFZkc1k-8" target="jxDY9_vzpqkCRHFZkc1k-9">
          <mxGeometry relative="1" as="geometry">
            <mxPoint x="280" y="220" as="sourcePoint" />
            <mxPoint x="280" y="260" as="targetPoint" />
          </mxGeometry>
        </mxCell>
        <mxCell id="jxDY9_vzpqkCRHFZkc1k-31" value="" style="endArrow=none;html=1;rounded=0;entryX=0;entryY=0.5;entryDx=0;entryDy=0;" edge="1" parent="1" target="jxDY9_vzpqkCRHFZkc1k-3">
          <mxGeometry relative="1" as="geometry">
            <mxPoint x="170" y="190" as="sourcePoint" />
            <mxPoint x="330" y="190" as="targetPoint" />
          </mxGeometry>
        </mxCell>
        <mxCell id="jxDY9_vzpqkCRHFZkc1k-32" value="" style="endArrow=none;html=1;rounded=0;entryX=0;entryY=0;entryDx=0;entryDy=0;" edge="1" parent="1" target="jxDY9_vzpqkCRHFZkc1k-3">
          <mxGeometry relative="1" as="geometry">
            <mxPoint x="170" y="140" as="sourcePoint" />
            <mxPoint x="330" y="140" as="targetPoint" />
          </mxGeometry>
        </mxCell>
        <mxCell id="jxDY9_vzpqkCRHFZkc1k-33" value="" style="endArrow=none;html=1;rounded=0;entryX=0.25;entryY=0;entryDx=0;entryDy=0;" edge="1" parent="1" target="jxDY9_vzpqkCRHFZkc1k-3">
          <mxGeometry relative="1" as="geometry">
            <mxPoint x="170" y="90" as="sourcePoint" />
            <mxPoint x="330" y="90" as="targetPoint" />
          </mxGeometry>
        </mxCell>
        <mxCell id="jxDY9_vzpqkCRHFZkc1k-34" value="" style="endArrow=none;html=1;rounded=0;exitX=0.5;exitY=1;exitDx=0;exitDy=0;entryX=0.5;entryY=0;entryDx=0;entryDy=0;" edge="1" parent="1" source="jxDY9_vzpqkCRHFZkc1k-4" target="jxDY9_vzpqkCRHFZkc1k-3">
          <mxGeometry relative="1" as="geometry">
            <mxPoint x="260" y="100" as="sourcePoint" />
            <mxPoint x="420" y="100" as="targetPoint" />
          </mxGeometry>
        </mxCell>
        <mxCell id="jxDY9_vzpqkCRHFZkc1k-35" value="" style="endArrow=none;html=1;rounded=0;entryX=0.5;entryY=0;entryDx=0;entryDy=0;" edge="1" parent="1" target="jxDY9_vzpqkCRHFZkc1k-3">
          <mxGeometry relative="1" as="geometry">
            <mxPoint x="310" y="80" as="sourcePoint" />
            <mxPoint x="540" y="100" as="targetPoint" />
          </mxGeometry>
        </mxCell>
        <mxCell id="jxDY9_vzpqkCRHFZkc1k-36" value="" style="endArrow=none;html=1;rounded=0;exitX=0.5;exitY=0;exitDx=0;exitDy=0;entryX=0;entryY=1;entryDx=0;entryDy=0;" edge="1" parent="1" source="jxDY9_vzpqkCRHFZkc1k-3" target="jxDY9_vzpqkCRHFZkc1k-2">
          <mxGeometry relative="1" as="geometry">
            <mxPoint x="330" y="160" as="sourcePoint" />
            <mxPoint x="490" y="160" as="targetPoint" />
          </mxGeometry>
        </mxCell>
        <mxCell id="jxDY9_vzpqkCRHFZkc1k-37" value="课程编号" style="ellipse;whiteSpace=wrap;html=1;align=center;" vertex="1" parent="1">
          <mxGeometry x="117.5" y="570" width="100" height="40" as="geometry" />
        </mxCell>
        <mxCell id="jxDY9_vzpqkCRHFZkc1k-38" value="学号" style="ellipse;whiteSpace=wrap;html=1;align=center;" vertex="1" parent="1">
          <mxGeometry x="220" y="590" width="100" height="40" as="geometry" />
        </mxCell>
        <mxCell id="jxDY9_vzpqkCRHFZkc1k-39" value="评分" style="ellipse;whiteSpace=wrap;html=1;align=center;" vertex="1" parent="1">
          <mxGeometry x="322.5" y="570" width="100" height="40" as="geometry" />
        </mxCell>
        <mxCell id="jxDY9_vzpqkCRHFZkc1k-40" value="登录成功" style="shape=rhombus;perimeter=rhombusPerimeter;whiteSpace=wrap;html=1;align=center;" vertex="1" parent="1">
          <mxGeometry x="360" y="160" width="120" height="60" as="geometry" />
        </mxCell>
        <mxCell id="jxDY9_vzpqkCRHFZkc1k-43" value="N" style="endArrow=none;html=1;rounded=0;exitX=1;exitY=0.5;exitDx=0;exitDy=0;entryX=0;entryY=0.5;entryDx=0;entryDy=0;" edge="1" parent="1" source="jxDY9_vzpqkCRHFZkc1k-3" target="jxDY9_vzpqkCRHFZkc1k-40">
          <mxGeometry relative="1" as="geometry">
            <mxPoint x="280" y="180" as="sourcePoint" />
            <mxPoint x="355" y="190" as="targetPoint" />
          </mxGeometry>
        </mxCell>
        <mxCell id="jxDY9_vzpqkCRHFZkc1k-44" value="M" style="endArrow=none;html=1;rounded=0;exitX=1;exitY=0.5;exitDx=0;exitDy=0;entryX=0;entryY=0.5;entryDx=0;entryDy=0;" edge="1" parent="1" source="jxDY9_vzpqkCRHFZkc1k-40" target="jxDY9_vzpqkCRHFZkc1k-16">
          <mxGeometry relative="1" as="geometry">
            <mxPoint x="330" y="200" as="sourcePoint" />
            <mxPoint x="370" y="200" as="targetPoint" />
          </mxGeometry>
        </mxCell>
        <mxCell id="jxDY9_vzpqkCRHFZkc1k-46" value="登录时间" style="ellipse;whiteSpace=wrap;html=1;align=center;" vertex="1" parent="1">
          <mxGeometry x="530" y="230" width="100" height="40" as="geometry" />
        </mxCell>
        <mxCell id="jxDY9_vzpqkCRHFZkc1k-47" value="登录级别" style="ellipse;whiteSpace=wrap;html=1;align=center;" vertex="1" parent="1">
          <mxGeometry x="660" y="200" width="100" height="40" as="geometry" />
        </mxCell>
        <mxCell id="jxDY9_vzpqkCRHFZkc1k-48" value="IP地址" style="ellipse;whiteSpace=wrap;html=1;align=center;" vertex="1" parent="1">
          <mxGeometry x="660" y="140" width="100" height="40" as="geometry" />
        </mxCell>
        <mxCell id="jxDY9_vzpqkCRHFZkc1k-50" value="" style="endArrow=none;html=1;rounded=0;exitX=0.5;exitY=0;exitDx=0;exitDy=0;entryX=0.5;entryY=1;entryDx=0;entryDy=0;" edge="1" parent="1" source="jxDY9_vzpqkCRHFZkc1k-16" target="jxDY9_vzpqkCRHFZkc1k-10">
          <mxGeometry relative="1" as="geometry">
            <mxPoint x="280" y="180" as="sourcePoint" />
            <mxPoint x="354.64466094067257" y="144.14213562373106" as="targetPoint" />
          </mxGeometry>
        </mxCell>
        <mxCell id="jxDY9_vzpqkCRHFZkc1k-53" value="" style="endArrow=none;html=1;rounded=0;exitX=1;exitY=0;exitDx=0;exitDy=0;entryX=0;entryY=0.5;entryDx=0;entryDy=0;exitPerimeter=0;" edge="1" parent="1" source="jxDY9_vzpqkCRHFZkc1k-16" target="jxDY9_vzpqkCRHFZkc1k-48">
          <mxGeometry relative="1" as="geometry">
            <mxPoint x="600" y="190" as="sourcePoint" />
            <mxPoint x="600" y="150" as="targetPoint" />
          </mxGeometry>
        </mxCell>
        <mxCell id="jxDY9_vzpqkCRHFZkc1k-54" value="" style="endArrow=none;html=1;rounded=0;exitX=0;exitY=0.5;exitDx=0;exitDy=0;entryX=1;entryY=1;entryDx=0;entryDy=0;" edge="1" parent="1" source="jxDY9_vzpqkCRHFZkc1k-47" target="jxDY9_vzpqkCRHFZkc1k-16">
          <mxGeometry relative="1" as="geometry">
            <mxPoint x="610" y="200" as="sourcePoint" />
            <mxPoint x="610" y="160" as="targetPoint" />
          </mxGeometry>
        </mxCell>
        <mxCell id="jxDY9_vzpqkCRHFZkc1k-55" value="" style="endArrow=none;html=1;rounded=0;exitX=0.5;exitY=0;exitDx=0;exitDy=0;entryX=0.5;entryY=1;entryDx=0;entryDy=0;" edge="1" parent="1" source="jxDY9_vzpqkCRHFZkc1k-46" target="jxDY9_vzpqkCRHFZkc1k-16">
          <mxGeometry relative="1" as="geometry">
            <mxPoint x="620" y="210" as="sourcePoint" />
            <mxPoint x="620" y="170" as="targetPoint" />
          </mxGeometry>
        </mxCell>
        <mxCell id="jxDY9_vzpqkCRHFZkc1k-56" value="课程性质" style="ellipse;whiteSpace=wrap;html=1;align=center;" vertex="1" parent="1">
          <mxGeometry x="325" y="300" width="100" height="40" as="geometry" />
        </mxCell>
        <mxCell id="jxDY9_vzpqkCRHFZkc1k-57" value="课程名称" style="ellipse;whiteSpace=wrap;html=1;align=center;" vertex="1" parent="1">
          <mxGeometry x="422.5" y="330" width="100" height="40" as="geometry" />
        </mxCell>
        <mxCell id="jxDY9_vzpqkCRHFZkc1k-58" value="课程编号" style="ellipse;whiteSpace=wrap;html=1;align=center;" vertex="1" parent="1">
          <mxGeometry x="422.5" y="380" width="100" height="40" as="geometry" />
        </mxCell>
        <mxCell id="jxDY9_vzpqkCRHFZkc1k-59" value="" style="endArrow=none;html=1;rounded=0;entryX=0.5;entryY=0;entryDx=0;entryDy=0;" edge="1" parent="1" target="jxDY9_vzpqkCRHFZkc1k-37">
          <mxGeometry relative="1" as="geometry">
            <mxPoint x="220" y="550" as="sourcePoint" />
            <mxPoint x="230" y="200" as="targetPoint" />
          </mxGeometry>
        </mxCell>
        <mxCell id="jxDY9_vzpqkCRHFZkc1k-60" value="" style="endArrow=none;html=1;rounded=0;entryX=0.5;entryY=0;entryDx=0;entryDy=0;exitX=0.5;exitY=1;exitDx=0;exitDy=0;" edge="1" parent="1" source="jxDY9_vzpqkCRHFZkc1k-18" target="jxDY9_vzpqkCRHFZkc1k-38">
          <mxGeometry relative="1" as="geometry">
            <mxPoint x="230" y="560" as="sourcePoint" />
            <mxPoint x="180" y="600" as="targetPoint" />
          </mxGeometry>
        </mxCell>
        <mxCell id="jxDY9_vzpqkCRHFZkc1k-61" value="" style="endArrow=none;html=1;rounded=0;" edge="1" parent="1" target="jxDY9_vzpqkCRHFZkc1k-39">
          <mxGeometry relative="1" as="geometry">
            <mxPoint x="320" y="550" as="sourcePoint" />
            <mxPoint x="190" y="610" as="targetPoint" />
          </mxGeometry>
        </mxCell>
        <mxCell id="jxDY9_vzpqkCRHFZkc1k-62" value="专业" style="ellipse;whiteSpace=wrap;html=1;align=center;" vertex="1" parent="1">
          <mxGeometry x="120" y="310" width="100" height="40" as="geometry" />
        </mxCell>
        <mxCell id="jxDY9_vzpqkCRHFZkc1k-63" value="学分" style="ellipse;whiteSpace=wrap;html=1;align=center;" vertex="1" parent="1">
          <mxGeometry x="17.5" y="320" width="100" height="40" as="geometry" />
        </mxCell>
        <mxCell id="jxDY9_vzpqkCRHFZkc1k-64" value="授课学期" style="ellipse;whiteSpace=wrap;html=1;align=center;" vertex="1" parent="1">
          <mxGeometry x="20" y="370" width="100" height="40" as="geometry" />
        </mxCell>
        <mxCell id="jxDY9_vzpqkCRHFZkc1k-65" value="授课学院" style="ellipse;whiteSpace=wrap;html=1;align=center;" vertex="1" parent="1">
          <mxGeometry x="117.5" y="400" width="100" height="40" as="geometry" />
        </mxCell>
        <mxCell id="jxDY9_vzpqkCRHFZkc1k-66" value="上课时间" style="ellipse;whiteSpace=wrap;html=1;align=center;" vertex="1" parent="1">
          <mxGeometry x="325" y="400" width="100" height="40" as="geometry" />
        </mxCell>
        <mxCell id="jxDY9_vzpqkCRHFZkc1k-67" value="" style="endArrow=none;html=1;rounded=0;entryX=0;entryY=0.5;entryDx=0;entryDy=0;exitX=1;exitY=1;exitDx=0;exitDy=0;" edge="1" parent="1" source="jxDY9_vzpqkCRHFZkc1k-62" target="jxDY9_vzpqkCRHFZkc1k-11">
          <mxGeometry relative="1" as="geometry">
            <mxPoint x="230" y="560" as="sourcePoint" />
            <mxPoint x="177.5" y="580" as="targetPoint" />
          </mxGeometry>
        </mxCell>
        <mxCell id="jxDY9_vzpqkCRHFZkc1k-68" value="" style="endArrow=none;html=1;rounded=0;entryX=0;entryY=0.5;entryDx=0;entryDy=0;" edge="1" parent="1" target="jxDY9_vzpqkCRHFZkc1k-11">
          <mxGeometry relative="1" as="geometry">
            <mxPoint x="112" y="350" as="sourcePoint" />
            <mxPoint x="230" y="380" as="targetPoint" />
          </mxGeometry>
        </mxCell>
        <mxCell id="jxDY9_vzpqkCRHFZkc1k-69" value="" style="endArrow=none;html=1;rounded=0;exitX=1;exitY=1;exitDx=0;exitDy=0;" edge="1" parent="1">
          <mxGeometry relative="1" as="geometry">
            <mxPoint x="119.99533905932743" y="387.07213562373107" as="sourcePoint" />
            <mxPoint x="220" y="370" as="targetPoint" />
          </mxGeometry>
        </mxCell>
        <mxCell id="jxDY9_vzpqkCRHFZkc1k-70" value="" style="endArrow=none;html=1;rounded=0;entryX=0;entryY=0.5;entryDx=0;entryDy=0;exitX=1;exitY=0;exitDx=0;exitDy=0;" edge="1" parent="1" source="jxDY9_vzpqkCRHFZkc1k-65" target="jxDY9_vzpqkCRHFZkc1k-11">
          <mxGeometry relative="1" as="geometry">
            <mxPoint x="235.35533905932743" y="374.14213562373106" as="sourcePoint" />
            <mxPoint x="250" y="400" as="targetPoint" />
          </mxGeometry>
        </mxCell>
        <mxCell id="jxDY9_vzpqkCRHFZkc1k-72" value="" style="endArrow=none;html=1;rounded=0;entryX=1;entryY=0.5;entryDx=0;entryDy=0;" edge="1" parent="1" source="jxDY9_vzpqkCRHFZkc1k-56" target="jxDY9_vzpqkCRHFZkc1k-11">
          <mxGeometry relative="1" as="geometry">
            <mxPoint x="129.99533905932753" y="397.0721356237311" as="sourcePoint" />
            <mxPoint x="230" y="380" as="targetPoint" />
          </mxGeometry>
        </mxCell>
        <mxCell id="jxDY9_vzpqkCRHFZkc1k-73" value="" style="endArrow=none;html=1;rounded=0;entryX=1;entryY=0.5;entryDx=0;entryDy=0;exitX=0;exitY=0.5;exitDx=0;exitDy=0;" edge="1" parent="1" source="jxDY9_vzpqkCRHFZkc1k-57" target="jxDY9_vzpqkCRHFZkc1k-11">
          <mxGeometry relative="1" as="geometry">
            <mxPoint x="364.86306928671047" y="348.3063006484449" as="sourcePoint" />
            <mxPoint x="330" y="380" as="targetPoint" />
          </mxGeometry>
        </mxCell>
        <mxCell id="jxDY9_vzpqkCRHFZkc1k-74" value="" style="endArrow=none;html=1;rounded=0;exitX=0;exitY=0;exitDx=0;exitDy=0;" edge="1" parent="1" source="jxDY9_vzpqkCRHFZkc1k-58">
          <mxGeometry relative="1" as="geometry">
            <mxPoint x="432.5" y="360" as="sourcePoint" />
            <mxPoint x="320" y="370" as="targetPoint" />
          </mxGeometry>
        </mxCell>
        <mxCell id="jxDY9_vzpqkCRHFZkc1k-75" value="" style="endArrow=none;html=1;rounded=0;entryX=1;entryY=0.5;entryDx=0;entryDy=0;exitX=0.5;exitY=0;exitDx=0;exitDy=0;" edge="1" parent="1" source="jxDY9_vzpqkCRHFZkc1k-66" target="jxDY9_vzpqkCRHFZkc1k-11">
          <mxGeometry relative="1" as="geometry">
            <mxPoint x="442.5" y="370" as="sourcePoint" />
            <mxPoint x="340" y="390" as="targetPoint" />
          </mxGeometry>
        </mxCell>
      </root>
    </mxGraphModel>
  </diagram>
</mxfile>
